#!OML:ASF H:\LiuWeirdWalks\Patient Classification 1\Patient 1\Session 1\male.ASF
:FULLY-SPECIFIED
:DEGREES
1460
root 1.89783 18.0919 32.9714 6.02063 3.93989 6.37545
lowerback -3.07001 -1.12725 -11.3582
upperback -2.22631 -1.2369 0.383962
thorax -0.364493 -0.50036 6.74946
lowerneck -29.3264 2.02111 8.5824
upperneck 31.9337 1.5182 -7.25295
head 16.5684 0.587688 -4.35697
rclavicle 1.69169e-014 2.38542e-015
rhumerus -20.3727 -27.2167 -18.798
rradius 25.8287
rwrist -5.83582
rhand -30.7827 4.16448
rfingers 7.12502
rthumb -4.07327 -25.7763
lclavicle 1.69169e-014 2.38542e-015
lhumerus -29.2439 21.349 28.6903
lradius 42.2514
lwrist 27.3122
lhand -32.3083 1.65807
lfingers 7.12502
lthumb -5.54636 31.5655
rfemur -8.61639 -1.45265 10.4769
rtibia 30.3236
rfoot -15.7189 -25.0997
rtoes -4.13423
lfemur -3.52367 -3.32909 -24.4379
ltibia 15.5406
lfoot -6.15087 18.7454
ltoes -10.772
1461
root 1.8971 18.092 32.9753 6.00624 3.94782 6.30632
lowerback -3.03066 -1.12284 -11.2687
upperback -2.2178 -1.23777 0.422956
thorax -0.377806 -0.501143 6.74082
lowerneck -29.3626 2.01691 8.55992
upperneck 31.9273 1.51165 -7.23289
head 16.5721 0.584685 -4.34565
rclavicle 2.50966e-015 1.07344e-014
rhumerus -20.4977 -27.0688 -19.0022
rradius 25.7971
rwrist -5.87307
rhand -30.8061 4.20968
rfingers 7.12502
rthumb -4.09591 -25.7307
lclavicle 2.50966e-015 1.07344e-014
lhumerus -29.4561 21.3841 28.8569
lradius 42.3017
lwrist 26.9984
lhand -32.1512 1.67819
lfingers 7.12502
lthumb -5.39471 31.5895
rfemur -8.57186 -1.42227 10.5612
rtibia 30.2941
rfoot -15.7285 -25.1243
rtoes -4.13484
lfemur -3.50152 -3.33102 -24.3578
ltibia 15.5492
lfoot -6.18214 18.7512
ltoes -10.7126
1462
root 1.8965 18.0919 32.9785 6.02238 3.94815 6.33618
lowerback -3.01204 -1.12301 -11.2786
upperback -2.21302 -1.23991 0.435935
thorax -0.382438 -0.50199 6.76037
lowerneck -29.3929 2.01124 8.53552
upperneck 31.9084 1.50482 -7.21484
head 16.5683 0.580753 -4.33417
rclavicle -7.8815e-015 1.59028e-014
rhumerus -20.6344 -26.9697 -19.2078
rradius 25.764
rwrist -5.81398
rhand -30.8017 4.26115
rfingers 7.12502
rthumb -4.09166 -25.6793
lclavicle -7.8815e-015 1.59028e-014
lhumerus -29.6664 21.3927 29.0512
lradius 42.3458
lwrist 26.6811
lhand -31.9952 1.67737
lfingers 7.12502
lthumb -5.2441 31.5925
rfemur -8.56463 -1.4177 10.5312
rtibia 30.2788
rfoot -15.735 -25.1296
rtoes -4.14171
lfemur -3.50325 -3.32608 -24.3867
ltibia 15.5438
lfoot -6.19075 18.748
ltoes -10.6787
1463
root 1.89573 18.0921 32.9814 6.0426 3.94865 6.36675
lowerback -3.0016 -1.12171 -11.2865
upperback -2.20667 -1.23898 0.446403
thorax -0.381504 -0.501721 6.77613
lowerneck -29.4046 2.00474 8.51668
upperneck 31.8716 1.49667 -7.20071
head 16.5512 0.57612 -4.32438
rclavicle 1.0708e-015 5.96354e-015
rhumerus -20.7925 -26.8846 -19.4232
rradius 25.7449
rwrist -5.72099
rhand -30.796 4.26592
rfingers 7.12502
rthumb -4.08614 -25.6746
lclavicle 1.0708e-015 5.96354e-015
lhumerus -29.8728 21.3892 29.2718
lradius 42.3874
lwrist 26.3041
lhand -31.8347 1.75818
lfingers 7.12502
lthumb -5.08911 31.6771
rfemur -8.56936 -1.40961 10.5016
rtibia 30.2748
rfoot -15.7449 -25.1404
rtoes -4.15075
lfemur -3.50497 -3.3084 -24.4159
ltibia 15.5234
lfoot -6.17991 18.734
ltoes -10.6682
1464
root 1.89468 18.0925 32.9839 6.07411 3.94684 6.42185
lowerback -3.0006 -1.12047 -11.3212
upperback -2.20417 -1.23651 0.449037
thorax -0.379445 -0.500342 6.79866
lowerneck -29.3969 1.9974 8.50416
upperneck 31.8274 1.48726 -7.19069
head 16.5261 0.571161 -4.31707
rclavicle 1.27245e-014 -2.70347e-014
rhumerus -20.9777 -26.8111 -19.6514
rradius 25.7493
rwrist -5.60949
rhand -30.8098 4.21943
rfingers 7.12502
rthumb -4.09949 -25.7209
lclavicle 1.27245e-014 -2.70347e-014
lhumerus -30.0861 21.3687 29.5181
lradius 42.4273
lwrist 25.8432
lhand -31.6566 1.84152
lfingers 7.12502
lthumb -4.9172 31.7645
rfemur -8.59662 -1.40291 10.4452
rtibia 30.2907
rfoot -15.7611 -25.1526
rtoes -4.16016
lfemur -3.50707 -3.28451 -24.4709
ltibia 15.4766
lfoot -6.14723 18.7104
ltoes -10.6699
1465
root 1.8936 18.0934 32.9862 6.12049 3.93333 6.49499
lowerback -3.01741 -1.11703 -11.3721
upperback -2.20316 -1.22852 0.443838
thorax -0.370028 -0.496425 6.82193
lowerneck -29.3957 1.98401 8.47936
upperneck 31.7862 1.46872 -7.16586
head 16.5027 0.563166 -4.3032
rclavicle 6.50942e-015 -1.19271e-015
rhumerus -21.1947 -26.7792 -19.8934
rradius 25.7893
rwrist -5.45791
rhand -30.8259 4.11898
rfingers 7.12502
rthumb -4.11501 -25.821
lclavicle 6.50942e-015 -1.19271e-015
lhumerus -30.3149 21.3348 29.7867
lradius 42.4703
lwrist 25.2294
lhand -31.4172 1.94646
lfingers 7.12502
lthumb -4.68603 31.8746
rfemur -8.64984 -1.38498 10.3693
rtibia 30.318
rfoot -15.7804 -25.1668
rtoes -4.16446
lfemur -3.5193 -3.25295 -24.5453
ltibia 15.4138
lfoot -6.09702 18.6862
ltoes -10.6764
1466
root 1.89226 18.0945 32.9883 6.17347 3.91506 6.5811
lowerback -3.03475 -1.1176 -11.4464
upperback -2.20647 -1.22549 0.439054
thorax -0.363586 -0.494396 6.85876
lowerneck -29.3953 1.97576 8.46218
upperneck 31.7474 1.45599 -7.1461
head 16.4814 0.557813 -4.29186
rclavicle 1.93229e-014 -1.35174e-014
rhumerus -21.4003 -26.6468 -20.1925
rradius 25.8578
rwrist -5.49476
rhand -30.9069 3.93753
rfingers 7.12502
rthumb -4.19322 -26.0009
lclavicle 1.93229e-014 -1.35174e-014
lhumerus -30.5838 21.2993 30.0752
lradius 42.5334
lwrist 24.5073
lhand -31.1281 2.01368
lfingers 7.12502
lthumb -4.40684 31.9478
rfemur -8.71839 -1.36424 10.2793
rtibia 30.3579
rfoot -15.8035 -25.181
rtoes -4.16003
lfemur -3.53097 -3.2173 -24.6334
ltibia 15.332
lfoot -6.02355 18.6576
ltoes -10.7072
1467
root 1.89087 18.0955 32.9902 6.23376 3.8929 6.69002
lowerback -3.03919 -1.08683 -11.4991
upperback -2.23734 -1.1846 0.402434
thorax -0.402051 -0.470035 6.85132
lowerneck -29.3544 1.91797 8.3904
upperneck 31.7211 1.38264 -7.07874
head 16.4492 0.528601 -4.26266
rclavicle -1.53569e-014 3.69739e-014
rhumerus -21.6993 -26.5128 -20.4768
rradius 25.9553
rwrist -5.83685
rhand -31.1357 3.6156
rfingers 7.12502
rthumb -4.41421 -26.3184
lclavicle -1.53569e-014 3.69739e-014
lhumerus -30.8062 21.243 30.4235
lradius 42.5823
lwrist 23.6257
lhand -30.7523 2.02258
lfingers 7.12502
lthumb -4.04394 31.9639
rfemur -8.7982 -1.34888 10.1623
rtibia 30.4029
rfoot -15.8243 -25.1886
rtoes -4.14853
lfemur -3.54357 -3.19254 -24.7469
ltibia 15.2419
lfoot -5.95249 18.6378
ltoes -10.7146
1468
root 1.88933 18.0965 32.9919 6.29344 3.86792 6.79735
lowerback -3.04732 -1.06225 -11.5615
upperback -2.25576 -1.15052 0.372421
thorax -0.42375 -0.45043 6.85599
lowerneck -29.3521 1.8717 8.32958
upperneck 31.6962 1.32104 -7.0208
head 16.428 0.503831 -4.23787
rclavicle -1.22194e-014 -9.93923e-015
rhumerus -21.999 -26.395 -20.8024
rradius 26.0981
rwrist -6.16743
rhand -31.2923 3.28261
rfingers 7.12502
rthumb -4.56535 -26.6482
lclavicle -1.22194e-014 -9.93923e-015
lhumerus -31.0635 21.1699 30.8079
lradius 42.6669
lwrist 22.7656
lhand -30.3539 1.9851
lfingers 7.12502
lthumb -3.65918 31.9334
rfemur -8.87953 -1.33001 10.0474
rtibia 30.4482
rfoot -15.843 -25.1962
rtoes -4.13393
lfemur -3.5537 -3.16845 -24.8589
ltibia 15.1477
lfoot -5.86753 18.6196
ltoes -10.7456
